<svg xmlns="http://www.w3.org/2000/svg" xmlns:xlink="http://www.w3.org/1999/xlink" width="1366" zoomAndPan="magnify" viewBox="0 0 1024.5 693.749979" height="768" preserveAspectRatio="xMidYMid meet" version="1.0"><defs><clipPath id="19e3f4f24c"><path d="M 24 12.355469 L 999 12.355469 L 999 135 L 24 135 Z M 24 12.355469 " clip-rule="nonzero"/></clipPath><clipPath id="58f865c1ec"><path d="M 24 562 L 999 562 L 999 684.777344 L 24 684.777344 Z M 24 562 " clip-rule="nonzero"/></clipPath></defs><g clip-path="url(#19e3f4f24c)"><path fill="#000000" d="M 937.851562 12.644531 L 85.828125 12.644531 C 52.261719 12.644531 24.96875 39.949219 24.96875 73.523438 C 24.96875 107.097656 52.261719 134.402344 85.828125 134.402344 L 937.851562 134.402344 C 971.402344 134.402344 998.710938 107.097656 998.710938 73.523438 C 998.710938 39.949219 971.402344 12.644531 937.851562 12.644531 Z M 937.851562 12.644531 " fill-opacity="1" fill-rule="nonzero"/></g><path fill="#000000" d="M 937.851562 287.6875 L 85.828125 287.6875 C 52.261719 287.6875 24.96875 314.992188 24.96875 348.566406 C 24.96875 382.140625 52.261719 409.445312 85.828125 409.445312 L 937.851562 409.445312 C 971.402344 409.445312 998.710938 382.140625 998.710938 348.566406 C 998.710938 314.992188 971.402344 287.6875 937.851562 287.6875 Z M 937.851562 287.6875 " fill-opacity="1" fill-rule="nonzero"/><g clip-path="url(#58f865c1ec)"><path fill="#000000" d="M 937.851562 562.730469 L 85.828125 562.730469 C 52.261719 562.730469 24.96875 590.03125 24.96875 623.609375 C 24.96875 657.183594 52.261719 684.488281 85.828125 684.488281 L 937.851562 684.488281 C 971.402344 684.488281 998.710938 657.183594 998.710938 623.609375 C 998.710938 590.03125 971.402344 562.730469 937.851562 562.730469 Z M 937.851562 562.730469 " fill-opacity="1" fill-rule="nonzero"/></g></svg>