<svg xmlns="http://www.w3.org/2000/svg" xmlns:xlink="http://www.w3.org/1999/xlink" width="1366" zoomAndPan="magnify" viewBox="0 0 1024.5 576" height="768" preserveAspectRatio="xMidYMid meet" version="1.0"><path fill="#e4f5fd" d="M 726.074219 419.046875 C 724.523438 423.328125 722.839844 427.558594 721.027344 431.738281 C 719.21875 435.917969 717.28125 440.039062 715.214844 444.097656 C 713.152344 448.160156 710.964844 452.152344 708.65625 456.078125 C 706.347656 460.003906 703.917969 463.855469 701.371094 467.632812 C 698.824219 471.410156 696.167969 475.105469 693.394531 478.71875 C 690.621094 482.332031 687.738281 485.855469 684.75 489.292969 C 681.757812 492.730469 678.667969 496.070312 675.472656 499.316406 C 672.277344 502.5625 668.988281 505.707031 665.597656 508.753906 C 662.210938 511.796875 658.730469 514.734375 655.164062 517.5625 C 651.59375 520.394531 647.945312 523.109375 644.207031 525.71875 C 640.472656 528.324219 636.660156 530.8125 632.773438 533.183594 C 628.886719 535.554688 624.929688 537.804688 620.902344 539.933594 C 616.875 542.058594 612.789062 544.0625 608.636719 545.941406 C 604.488281 547.816406 600.285156 549.566406 596.027344 551.183594 C 591.773438 552.800781 587.46875 554.289062 583.121094 555.640625 C 578.773438 556.996094 574.386719 558.214844 569.964844 559.300781 C 565.523438 560.292969 561.054688 561.148438 556.558594 561.867188 C 552.0625 562.585938 547.550781 563.164062 543.019531 563.605469 C 538.488281 564.046875 533.945312 564.347656 529.398438 564.511719 C 524.847656 564.671875 520.296875 564.695312 515.746094 564.578125 C 511.195312 564.460938 506.652344 564.203125 502.117188 563.804688 C 497.582031 563.410156 493.0625 562.875 488.5625 562.199219 C 484.058594 561.527344 479.582031 560.714844 475.128906 559.765625 C 470.675781 558.816406 466.257812 557.730469 461.871094 556.511719 C 457.488281 555.289062 453.140625 553.9375 448.839844 552.449219 C 444.535156 550.960938 440.285156 549.34375 436.082031 547.59375 C 431.878906 545.84375 427.730469 543.96875 423.644531 541.964844 C 419.554688 539.960938 415.53125 537.835938 411.574219 535.585938 C 407.617188 533.335938 403.730469 530.964844 399.917969 528.476562 C 396.109375 525.984375 392.375 523.382812 388.722656 520.664062 C 385.070312 517.945312 381.503906 515.117188 378.027344 512.179688 C 374.546875 509.242188 371.164062 506.199219 367.871094 503.054688 C 350.625 486.207031 324.488281 431.175781 324.488281 431.175781 C 276.480469 490.609375 176.554688 497.035156 121.496094 444.382812 C 66.433594 391.730469 68.367188 291.640625 125.355469 241.054688 C 141.882812 226.40625 164.832031 215.492188 185.804688 222.410156 C 185.804688 222.410156 150.148438 139.390625 234.667969 89.972656 C 326.105469 36.421875 401.6875 118.5 401.6875 118.5 C 402.585938 80.898438 503.542969 0.480469 597.855469 45.046875 C 601.382812 46.679688 604.855469 48.429688 608.265625 50.296875 C 611.679688 52.164062 615.023438 54.144531 618.300781 56.238281 C 621.578125 58.332031 624.78125 60.53125 627.914062 62.839844 C 631.042969 65.152344 634.089844 67.5625 637.058594 70.078125 C 640.027344 72.589844 642.90625 75.203125 645.695312 77.910156 C 648.488281 80.621094 651.183594 83.421875 653.789062 86.308594 C 656.390625 89.199219 658.894531 92.175781 661.296875 95.234375 C 663.699219 98.292969 665.992188 101.429688 668.183594 104.644531 C 670.375 107.859375 672.457031 111.144531 674.425781 114.5 C 676.394531 117.851562 678.25 121.269531 679.988281 124.75 C 681.726562 128.226562 683.347656 131.761719 684.847656 135.351562 C 686.351562 138.941406 687.730469 142.574219 688.984375 146.257812 C 690.242188 149.9375 691.371094 153.65625 692.378906 157.414062 C 693.382812 161.171875 694.261719 164.960938 695.011719 168.777344 C 695.761719 172.59375 696.382812 176.433594 696.875 180.292969 C 697.367188 184.152344 697.726562 188.023438 697.960938 191.90625 C 762.046875 143.925781 912.136719 150.621094 927.941406 253.09375 C 957.136719 442.226562 726.074219 419.046875 726.074219 419.046875 Z M 726.074219 419.046875 " fill-opacity="1" fill-rule="nonzero"/></svg>