<svg xmlns="http://www.w3.org/2000/svg" xmlns:xlink="http://www.w3.org/1999/xlink" width="1366" zoomAndPan="magnify" viewBox="0 0 1024.5 326.250004" height="768" preserveAspectRatio="xMidYMid meet" version="1.0"><defs><clipPath id="32043479d7"><path d="M 0.925781 6 L 1021 6 L 1021 324.753906 L 0.925781 324.753906 Z M 0.925781 6 " clip-rule="nonzero"/></clipPath></defs><g clip-path="url(#32043479d7)"><path fill="#a4d4b4" d="M -199.863281 315.160156 C -196.433594 286.941406 -198.621094 258.355469 -197.167969 229.964844 C -195.71875 201.578125 -190.160156 172.273438 -173.335938 149.359375 C -155.359375 124.875 -126.488281 110.5 -97.175781 102.53125 C -67.863281 94.558594 -37.359375 92.125 -7.535156 86.359375 C 80.84375 69.261719 162.042969 23.152344 251.109375 10.089844 C 304.03125 2.328125 360.308594 7.144531 406.960938 33.300781 C 439.121094 51.332031 465.066406 78.398438 493.621094 101.722656 C 507.898438 113.386719 522.988281 124.210938 539.542969 132.320312 C 556.101562 140.429688 574.222656 145.769531 592.65625 146.046875 C 622.945312 146.5 651.765625 133.449219 678.082031 118.441406 C 704.394531 103.4375 729.738281 86.054688 758.457031 76.410156 C 791.964844 65.152344 828.933594 65.164062 862.863281 75.085938 C 896.789062 85.011719 927.625 104.636719 952.042969 130.199219 C 1000.875 181.320312 1022.578125 254.445312 1020.417969 325.109375 C 1018.59375 384.816406 1001.160156 442.757812 987.257812 500.855469 C 979.074219 535.054688 972.050781 569.636719 960.453125 602.835938 C 948.859375 636.035156 932.367188 668.144531 907.675781 693.183594 C 886.402344 714.75 859.71875 730.378906 831.765625 742.050781 C 803.8125 753.722656 774.457031 761.625 745.191406 769.449219 C 661.609375 791.800781 576.25 813.992188 489.859375 809.242188 C 391.191406 803.816406 296.792969 763.460938 198.054688 759.503906 C 166.492188 758.238281 134.863281 760.71875 103.304688 759.316406 C 71.746094 757.910156 39.578125 752.324219 12.359375 736.289062 C -18.105469 718.34375 -39.890625 688.855469 -58.449219 658.761719 C -77.007812 628.664062 -93.421875 596.871094 -116.964844 570.492188 C -133.59375 551.855469 -153.398438 536.363281 -171.328125 518.976562 C -189.261719 501.589844 -205.710938 481.597656 -213.128906 457.746094 C -220.289062 434.710938 -218.476562 409.820312 -214.078125 386.101562 C -209.679688 362.378906 -202.773438 339.109375 -199.863281 315.160156 Z M -199.863281 315.160156 " fill-opacity="1" fill-rule="nonzero"/></g></svg>