<svg xmlns="http://www.w3.org/2000/svg" xmlns:xlink="http://www.w3.org/1999/xlink" width="500" zoomAndPan="magnify" viewBox="0 0 375 374.999991" height="500" preserveAspectRatio="xMidYMid meet" version="1.0"><defs><clipPath id="39bdcbca59"><path d="M 88 1 L 291.820312 1 L 291.820312 375 L 88 375 Z M 88 1 " clip-rule="nonzero"/></clipPath></defs><g clip-path="url(#39bdcbca59)"><path fill="#743c0e" d="M 190.265625 374.9375 C 192.472656 353.785156 194.023438 332.125 194.601562 310.285156 C 182.640625 295.441406 160.988281 294.734375 143.164062 292.757812 C 126.105469 290.425781 108.414062 288.015625 93.171875 279.558594 C 87.851562 272.816406 112.0625 267.246094 116.421875 264.410156 C 160.328125 241.355469 180.378906 271.605469 194.683594 307.398438 C 195.085938 291.007812 194.960938 274.515625 194.144531 258.023438 C 185.707031 241.941406 164.460938 242.367188 148.667969 238.671875 C 128.515625 235.203125 110.132812 225.117188 94.445312 212.296875 C 83.316406 204.902344 89.09375 200.1875 99.769531 199.023438 C 114.496094 197.707031 129.453125 193.90625 144.234375 196.390625 C 169.960938 202.269531 188.269531 228.539062 193.898438 253.3125 C 192.804688 232.6875 190.648438 212.097656 187.25 191.75 C 183.195312 184.355469 173.105469 182.65625 165.273438 181.644531 C 153.308594 179.746094 141.0625 178.730469 129.632812 174.449219 C 115.941406 168.671875 102.988281 158.566406 93.660156 147.316406 C 93.535156 146.148438 94.242188 145.035156 95.152344 144.429688 C 99.820312 141.71875 105.421875 141.1875 110.667969 140.402344 C 146.667969 133.230469 173.15625 159.296875 186.898438 189.726562 C 183.832031 171.738281 179.796875 153.980469 174.601562 136.574219 C 168.546875 127.582031 154.828125 130.597656 145.246094 128.445312 C 124.460938 126.519531 105.671875 115.09375 90.082031 101.890625 C 87.546875 95.253906 105.34375 96.878906 109.378906 95.914062 C 145.246094 92.0625 164.03125 110.609375 174.25 135.4375 C 174.273438 135.488281 174.300781 135.5625 174.324219 135.617188 C 169.492188 119.378906 163.617188 103.527344 156.703125 88.0625 C 137.789062 83.324219 117.511719 78.105469 102.378906 64.628906 C 99.945312 61.972656 101.945312 58.140625 105.269531 57.632812 C 117.589844 56.21875 129.101562 64.550781 138.324219 71.820312 C 144.359375 76.511719 149.199219 83.679688 156.121094 86.820312 C 152.242188 78.253906 148.035156 69.847656 143.394531 61.589844 C 143.523438 61.84375 143.523438 61.96875 143.238281 61.6875 C 132.394531 52.546875 117.96875 47.707031 105.238281 41.246094 C 101.71875 40.054688 97.738281 34.28125 103.113281 32.734375 C 119.765625 32.710938 132.699219 49.375 142.886719 60.675781 C 139.234375 54.066406 135.304688 47.570312 131.097656 41.191406 C 130.578125 41.042969 130.207031 40.726562 129.984375 40.234375 C 129.855469 40.238281 129.730469 40.230469 129.601562 40.207031 C 129.367188 40.152344 129.148438 40.058594 128.941406 39.929688 C 128.613281 39.761719 128.308594 39.5625 128.03125 39.320312 C 115.359375 28.835938 101.976562 18.371094 89.855469 7.015625 C 88.457031 5.699219 87.777344 3.089844 89.777344 1.953125 C 91.886719 0.988281 94.191406 2.355469 96.039062 3.375 C 106.511719 10.613281 115.359375 20.324219 123.726562 29.996094 C 117.96875 19.785156 111.628906 5.648438 116.601562 2.003906 C 127.550781 0 129.675781 25.917969 131.960938 33.59375 C 131.960938 35.820312 134.421875 39.597656 132.191406 41.066406 C 132.875 41.976562 133.53125 42.867188 134.191406 43.703125 C 137.789062 48.746094 141.179688 53.886719 144.359375 59.128906 C 140.351562 45.148438 136.324219 29.695312 139.945312 15.707031 C 141.972656 13.148438 144.894531 15.484375 145.597656 17.886719 C 148.742188 27.03125 147.65625 36.507812 146.613281 45.933594 C 148.164062 37.242188 151.332031 28.859375 156.246094 21.4375 C 157.511719 18.625 163.546875 12.1875 163.394531 19.082031 C 158.023438 33.089844 147.65625 45.679688 145.625 60.855469 C 145.621094 60.980469 145.628906 61.105469 145.648438 61.230469 L 145.648438 61.261719 C 150.417969 69.136719 154.761719 77.191406 158.679688 85.425781 C 155.515625 65.945312 165.246094 43.421875 182.054688 33.339844 C 186.644531 31.3125 190.878906 35.566406 190.167969 40.207031 C 188.820312 51.027344 180.460938 58.980469 173.132812 66.300781 C 167.835938 72.332031 160.175781 79.601562 159.871094 87.933594 C 164.765625 98.246094 169.023438 108.808594 172.773438 119.601562 C 172.296875 99.03125 186.261719 80.941406 203.402344 70.28125 C 209.710938 65.921875 215.871094 61.460938 221.90625 56.699219 C 222.765625 56.113281 223.804688 55.6875 224.871094 55.941406 C 232.351562 60.675781 221.808594 78.105469 217.921875 83.476562 C 206.875 98.597656 187.554688 104.785156 175.746094 118.996094 C 175.003906 120.007812 174.171875 121.097656 173.6875 122.265625 C 178.429688 136.191406 182.332031 150.457031 185.503906 164.898438 C 186.589844 141.667969 195.414062 125.9375 217.796875 114.179688 C 228.574219 108.710938 238.308594 102.273438 247.765625 94.925781 C 248.519531 94.394531 249.433594 93.964844 250.347656 94.140625 C 256.304688 97.941406 245.203125 115.472656 242.335938 120.207031 C 233.183594 135.660156 217.242188 144.40625 201.597656 152.101562 C 194.023438 155.09375 187.453125 160.792969 186.335938 168.796875 C 189.761719 185.089844 192.292969 201.582031 194.121094 218.125 C 194.144531 217.820312 194.144531 217.542969 194.171875 217.265625 C 195.566406 188.558594 202.160156 165.40625 244.214844 151.242188 C 252.503906 148.078125 259.957031 143.261719 267.308594 138.324219 C 268.019531 137.941406 269.082031 137.816406 269.769531 138.324219 C 270.628906 138.960938 270.882812 139.992188 270.9375 141.03125 C 270.324219 149.371094 266.925781 157.324219 263.28125 164.742188 C 249.972656 199.957031 203.199219 187.644531 194.601562 218.175781 L 194.652344 218.148438 C 194.578125 218.910156 194.449219 219.71875 194.375 220.503906 C 195.714844 233.144531 196.65625 245.816406 197.265625 258.40625 C 203.703125 236.488281 212.832031 213.210938 236.484375 205.410156 C 248.476562 200.921875 261.425781 198.589844 273.011719 193.046875 C 274.613281 192.386719 276.460938 191.167969 278.183594 192.183594 C 282.515625 197.097656 277.574219 204.746094 275.195312 209.6875 C 263.101562 230.617188 240.285156 241.53125 217.464844 246.398438 C 207.9375 248.398438 200.558594 253.96875 197.441406 262.105469 C 197.617188 266.5625 197.769531 270.996094 197.898438 275.40625 C 198.152344 286.117188 198.378906 296.886719 198.328125 307.628906 C 207.457031 275.25 225.78125 257.851562 266.878906 255.285156 C 273.824219 254.402344 280.515625 252.703125 287.082031 250.625 C 288.929688 249.871094 291.519531 250.222656 291.820312 252.578125 C 288.550781 266.609375 276.4375 278.1875 265.5625 287.230469 C 253.847656 296.558594 238.640625 298.964844 224.164062 300.457031 C 216.230469 302.4375 202.585938 301.621094 198.328125 309.328125 L 198.328125 309.351562 C 198.199219 330.226562 196.957031 351.074219 192.726562 371.519531 C 192.371094 372.808594 192.242188 374.992188 190.671875 374.992188 C 190.535156 374.984375 190.398438 374.96875 190.265625 374.9375 Z M 190.265625 374.9375 " fill-opacity="1" fill-rule="nonzero"/></g></svg>