<svg xmlns="http://www.w3.org/2000/svg" xmlns:xlink="http://www.w3.org/1999/xlink" width="500" zoomAndPan="magnify" viewBox="0 0 375 374.999991" height="500" preserveAspectRatio="xMidYMid meet" version="1.0"><defs><clipPath id="248e06b528"><path d="M 83.320312 1 L 287 1 L 287 375 L 83.320312 375 Z M 83.320312 1 " clip-rule="nonzero"/></clipPath></defs><g clip-path="url(#248e06b528)"><path fill="#743c0e" d="M 184.730469 374.9375 C 182.523438 353.785156 180.976562 332.125 180.398438 310.285156 C 192.359375 295.441406 214.011719 294.734375 231.832031 292.757812 C 248.894531 290.425781 266.585938 288.015625 281.824219 279.558594 C 287.148438 272.816406 262.933594 267.246094 258.578125 264.410156 C 214.671875 241.355469 194.621094 271.605469 180.316406 307.398438 C 179.914062 291.007812 180.039062 274.515625 180.855469 258.023438 C 189.292969 241.941406 210.539062 242.367188 226.332031 238.671875 C 246.484375 235.203125 264.863281 225.117188 280.554688 212.296875 C 291.683594 204.902344 285.90625 200.1875 275.230469 199.023438 C 260.5 197.707031 245.546875 193.90625 230.765625 196.390625 C 205.039062 202.269531 186.730469 228.539062 181.101562 253.3125 C 182.195312 232.6875 184.347656 212.097656 187.746094 191.75 C 191.804688 184.355469 201.894531 182.65625 209.722656 181.644531 C 221.691406 179.746094 233.9375 178.730469 245.367188 174.449219 C 259.054688 168.671875 272.011719 158.566406 281.339844 147.316406 C 281.464844 146.148438 280.753906 145.035156 279.847656 144.429688 C 275.179688 141.71875 269.578125 141.1875 264.332031 140.402344 C 228.328125 133.230469 201.839844 159.296875 188.097656 189.726562 C 191.167969 171.738281 195.203125 153.980469 200.394531 136.574219 C 206.453125 127.582031 220.171875 130.597656 229.75 128.445312 C 250.539062 126.519531 269.328125 115.09375 284.917969 101.890625 C 287.453125 95.253906 269.65625 96.878906 265.621094 95.914062 C 229.753906 92.0625 210.964844 110.609375 200.75 135.4375 C 200.726562 135.488281 200.699219 135.5625 200.675781 135.617188 C 205.507812 119.378906 211.382812 103.527344 218.292969 88.0625 C 237.207031 83.324219 257.484375 78.105469 272.621094 64.628906 C 275.054688 61.972656 273.054688 58.140625 269.730469 57.632812 C 257.410156 56.21875 245.898438 64.550781 236.675781 71.820312 C 230.636719 76.511719 225.800781 83.679688 218.878906 86.820312 C 222.753906 78.253906 226.960938 69.847656 231.601562 61.589844 C 231.476562 61.84375 231.476562 61.96875 231.757812 61.6875 C 242.605469 52.546875 257.03125 47.707031 269.757812 41.246094 C 273.277344 40.054688 277.261719 34.28125 271.886719 32.734375 C 255.230469 32.710938 242.300781 49.375 232.109375 60.675781 C 235.761719 54.066406 239.691406 47.570312 243.898438 41.191406 C 244.417969 41.042969 244.789062 40.726562 245.015625 40.234375 C 245.144531 40.238281 245.269531 40.230469 245.394531 40.207031 C 245.632812 40.152344 245.851562 40.058594 246.054688 39.929688 C 246.382812 39.761719 246.6875 39.5625 246.96875 39.320312 C 259.640625 28.835938 273.023438 18.371094 285.140625 7.015625 C 286.539062 5.699219 287.222656 3.089844 285.222656 1.953125 C 283.113281 0.988281 280.808594 2.355469 278.957031 3.375 C 268.488281 10.613281 259.640625 20.324219 251.273438 29.996094 C 257.027344 19.785156 263.367188 5.648438 258.398438 2.003906 C 247.449219 0 245.320312 25.917969 243.039062 33.59375 C 243.039062 35.820312 240.578125 39.597656 242.808594 41.066406 C 242.125 41.976562 241.46875 42.867188 240.808594 43.703125 C 237.207031 48.746094 233.816406 53.886719 230.636719 59.128906 C 234.648438 45.148438 238.675781 29.695312 235.050781 15.707031 C 233.023438 13.148438 230.105469 15.484375 229.402344 17.886719 C 226.257812 27.03125 227.34375 36.507812 228.382812 45.933594 C 226.835938 37.242188 223.667969 28.859375 218.75 21.4375 C 217.484375 18.625 211.453125 12.1875 211.601562 19.082031 C 216.976562 33.089844 227.34375 45.679688 229.371094 60.855469 C 229.375 60.980469 229.367188 61.105469 229.347656 61.230469 L 229.347656 61.261719 C 224.582031 69.136719 220.238281 77.191406 216.316406 85.425781 C 219.484375 65.945312 209.753906 43.421875 192.945312 33.339844 C 188.355469 31.3125 184.121094 35.566406 184.832031 40.207031 C 186.175781 51.027344 194.539062 58.980469 201.867188 66.300781 C 207.164062 72.332031 214.820312 79.601562 215.128906 87.933594 C 210.234375 98.246094 205.972656 108.808594 202.222656 119.601562 C 202.703125 99.03125 188.738281 80.941406 171.597656 70.28125 C 165.285156 65.921875 159.125 61.460938 153.09375 56.699219 C 152.234375 56.113281 151.191406 55.6875 150.128906 55.941406 C 142.644531 60.675781 153.191406 78.105469 157.074219 83.476562 C 168.125 98.597656 187.441406 104.785156 199.253906 118.996094 C 199.992188 120.007812 200.828125 121.097656 201.3125 122.265625 C 196.566406 136.191406 192.667969 150.457031 189.496094 164.898438 C 188.40625 141.667969 179.582031 125.9375 157.203125 114.179688 C 146.425781 108.710938 136.6875 102.273438 127.234375 94.925781 C 126.476562 94.394531 125.566406 93.964844 124.652344 94.140625 C 118.695312 97.941406 129.796875 115.472656 132.660156 120.207031 C 141.816406 135.660156 157.757812 144.40625 173.402344 152.101562 C 180.976562 155.09375 187.546875 160.792969 188.664062 168.796875 C 185.234375 185.089844 182.703125 201.582031 180.878906 218.125 C 180.855469 217.820312 180.855469 217.542969 180.828125 217.265625 C 179.433594 188.558594 172.839844 165.40625 130.78125 151.242188 C 122.496094 148.078125 115.042969 143.261719 107.691406 138.324219 C 106.980469 137.941406 105.917969 137.816406 105.230469 138.324219 C 104.367188 138.960938 104.113281 139.992188 104.0625 141.03125 C 104.675781 149.371094 108.074219 157.324219 111.71875 164.742188 C 125.027344 199.957031 171.800781 187.644531 180.398438 218.175781 L 180.347656 218.148438 C 180.421875 218.910156 180.550781 219.71875 180.625 220.503906 C 179.285156 233.144531 178.339844 245.816406 177.734375 258.40625 C 171.296875 236.488281 162.167969 213.210938 138.515625 205.410156 C 126.523438 200.921875 113.574219 198.589844 101.988281 193.046875 C 100.386719 192.386719 98.539062 191.167969 96.816406 192.183594 C 92.480469 197.097656 97.421875 204.746094 99.804688 209.6875 C 111.898438 230.617188 134.710938 241.53125 157.53125 246.398438 C 167.0625 248.398438 174.441406 253.96875 177.554688 262.105469 C 177.382812 266.5625 177.230469 270.996094 177.097656 275.40625 C 176.84375 286.117188 176.621094 296.886719 176.671875 307.628906 C 167.542969 275.25 149.21875 257.851562 108.121094 255.285156 C 101.171875 254.402344 94.480469 252.703125 87.917969 250.625 C 86.066406 249.871094 83.480469 250.222656 83.179688 252.578125 C 86.449219 266.609375 98.5625 278.1875 109.4375 287.230469 C 121.148438 296.558594 136.359375 298.964844 150.835938 300.457031 C 158.769531 302.4375 172.414062 301.621094 176.671875 309.328125 L 176.671875 309.351562 C 176.796875 330.226562 178.042969 351.074219 182.269531 371.519531 C 182.628906 372.808594 182.757812 374.992188 184.328125 374.992188 C 184.464844 374.984375 184.597656 374.96875 184.730469 374.9375 Z M 184.730469 374.9375 " fill-opacity="1" fill-rule="nonzero"/></g></svg>