<svg xmlns="http://www.w3.org/2000/svg" xmlns:xlink="http://www.w3.org/1999/xlink" width="1366" zoomAndPan="magnify" viewBox="0 0 1024.5 220.499993" height="768" preserveAspectRatio="xMidYMid meet" version="1.0"><defs><clipPath id="15c6ef4c72"><path d="M 2 8 L 1023.089844 8 L 1023.089844 220 L 2 220 Z M 2 8 " clip-rule="nonzero"/></clipPath></defs><g clip-path="url(#15c6ef4c72)"><path fill="#ffcf9c" d="M 19.019531 283.363281 C 22.078125 258.199219 20.128906 232.710938 21.421875 207.394531 C 22.714844 182.082031 27.671875 155.953125 42.675781 135.519531 C 58.707031 113.6875 84.445312 100.867188 110.585938 93.761719 C 136.722656 86.652344 163.921875 84.484375 190.519531 79.339844 C 269.328125 64.09375 341.734375 22.980469 421.152344 11.332031 C 468.339844 4.410156 518.527344 8.703125 560.125 32.03125 C 588.800781 48.109375 611.9375 72.242188 637.402344 93.042969 C 650.132812 103.441406 663.585938 113.09375 678.347656 120.324219 C 693.113281 127.554688 709.273438 132.316406 725.710938 132.5625 C 752.71875 132.96875 778.417969 121.332031 801.882812 107.949219 C 825.347656 94.570312 847.945312 79.070312 873.554688 70.46875 C 903.433594 60.433594 936.398438 60.441406 966.652344 69.289062 C 996.902344 78.136719 1024.402344 95.640625 1046.171875 118.433594 C 1089.714844 164.015625 1109.070312 229.222656 1107.144531 292.234375 C 1105.519531 345.476562 1089.972656 397.144531 1077.578125 448.949219 C 1070.277344 479.445312 1064.015625 510.28125 1053.675781 539.882812 C 1043.335938 569.488281 1028.628906 598.117188 1006.613281 620.445312 C 987.644531 639.675781 963.851562 653.613281 938.921875 664.019531 C 913.996094 674.429688 887.820312 681.476562 861.726562 688.453125 C 787.195312 708.382812 711.082031 728.171875 634.046875 723.933594 C 546.0625 719.097656 461.890625 683.113281 373.84375 679.582031 C 345.699219 678.453125 317.496094 680.667969 289.355469 679.414062 C 261.214844 678.164062 232.527344 673.183594 208.257812 658.886719 C 181.09375 642.882812 161.667969 616.585938 145.117188 589.75 C 128.570312 562.914062 113.933594 534.566406 92.941406 511.042969 C 78.113281 494.425781 60.453125 480.609375 44.464844 465.105469 C 28.472656 449.605469 13.804688 431.773438 7.191406 410.507812 C 0.804688 389.964844 2.421875 367.773438 6.347656 346.621094 C 10.269531 325.46875 16.425781 304.71875 19.019531 283.363281 Z M 19.019531 283.363281 " fill-opacity="1" fill-rule="nonzero"/></g></svg>